<?xml version="1.0" standalone="no"?>
<!DOCTYPE svg PUBLIC "-//W3C//DTD SVG 1.1//EN" "http://www.w3.org/Graphics/SVG/1.1/DTD/svg11.dtd" >
<svg xmlns="http://www.w3.org/2000/svg">
<metadata>Generated by IcoMoon</metadata>
<defs>
<font id="icomoon" horiz-adv-x="1024">
<font-face units-per-em="1024" ascent="960" descent="-64" />
<missing-glyph horiz-adv-x="1024" />
<glyph unicode="&#x20;" horiz-adv-x="512" d="" />
<glyph unicode="&#xe900;" glyph-name="DouYin" d="M909.29 862h-792.29c-10.49 0-19-8.51-19-19v-792.29c0-10.49 8.51-19 19-19h792.29c10.49 0 19 8.51 19 19v792.29c0 10.49-8.5 19-19 19zM801.91 568.99c0.020-10.84-0.34-21.67-0.4-32.51-0.030-4.77 0.21-9.54 0.46-14.3 0.22-4.15-1.68-7.11-4.81-9.53-1.54-1.19-3.18-1.88-5.16-1.7-10.070 0.95-20.2 1.5-30.21 2.92-20.37 2.88-40.28 7.82-59.31 15.75-8.48 3.53-16.7 7.7-25 11.67-6.14 2.94-11.85-0.56-11.83-7.51 0.020-5.58 0.41-11.17 0.42-16.75 0.040-47.85 0.040-95.7 0-143.55-0.010-6.64-0.4-13.27-0.41-19.91-0.010-5.58 0.43-11.17 0.39-16.75s-0.13-11.19-0.74-16.73c-1.48-13.4-3.5-26.7-6.93-39.79-8.94-34.1-25.050-64.35-48.24-90.83-17.19-19.64-37.1-36-59.99-48.6-20.44-11.24-42.050-19.45-65.020-23.74-10.97-2.050-21.99-4-33.24-3.99-7.68 0.010-15.37-0.61-23.030-0.25-6.6 0.3-13.15 1.6-19.73 2.42-11.92 1.49-23.7 3.54-35.22 7.080-13.53 4.16-26.38 9.86-38.89 16.4-10.24 5.35-20.080 11.33-29.45 18.1-12.060 8.72-22.71 18.91-32.3 30.26-2.93 3.47-6.030 6.79-9 10.22-12.71 14.66-22.18 31.33-30.12 48.93-8.88 19.67-14.42 40.29-17.37 61.62-1.9 13.77-2.15 27.63-1.47 41.5 1.2 24.37 6.39 47.93 15.32 70.61 7.64 19.41 17.94 37.35 30.62 53.94 20.87 27.32 46.69 48.63 77.29 64.23 19.66 10.030 40.39 16.81 62.080 20.72 9.86 1.78 19.81 2.69 29.83 3.19 14.83 0.73 29.56-0.21 44.24-2.16 2.67-0.35 5.29-0.85 7.45-2.68 3.3-2.78 5.29-6.11 4.91-10.63-0.23-2.67-0.24-5.36-0.24-8.040-0.010-36.060-0.020-72.13 0.010-108.19 0-2.26-0.17-4.33-1.71-6.21-2.74-3.36-5.46-4.24-9.53-2.89-4.41 1.47-8.77 3.18-13.28 4.25-25.81 6.1-49.91 2.17-72.11-12.6-14-9.31-24.85-21.44-32.23-36.51-4.27-8.73-6.82-18.050-7.82-27.76-1.23-11.91-1.010-23.75 2.38-35.3 5.040-17.15 14.11-31.68 27.66-43.67 14.11-12.49 30.35-19.81 48.76-22.42 17.41-2.47 34.080 0.67 50.020 7.96 9.55 4.37 17.95 10.43 25.3 17.82 14.39 14.47 23.65 31.64 26.11 52.090 0.75 6.22 1.18 12.52 1.18 18.78 0.080 69.91 0.050 139.82 0.050 209.72 0.080 0 0.16 0 0.23 0 0 21.7 0 43.41 0 65.11 0 33.83 0.020 67.67-0.010 101.5-0.010 13.18-0.17 26.36-0.21 39.55-0.010 3.5 0.34 7 0.17 10.49-0.18 3.89 5.7 10.3 9.78 9.83 0.81-0.090 1.63-0.010 2.45-0.010 36.3 0 72.59 0 108.89 0 0.82 0 1.64 0.030 2.45-0.010 6.92-0.35 11.25-4.87 11.66-11.8 0.87-14.65 4.060-28.74 10.22-42.13 6.78-14.75 15.52-28.1 27.11-39.55 7.89-7.8 15.97-15.34 25.48-21.16 16.29-9.96 33.84-16.55 52.76-19.36 3.11-0.46 6.23-0.77 9.35-1.14 6.090-0.73 10.35-5.88 10.080-12.060-0.25-5.93-0.56-11.87-0.54-17.8 0.1-15.37 0.42-30.76 0.44-46.14z" />
<glyph unicode="&#xe901;" glyph-name="FaceBook" d="M909.29 862h-792.29c-10.49 0-19-8.51-19-19v-792.29c0-10.49 8.51-19 19-19h313.070c0.030 88.82 0.060 177.64 0.060 266.46 0 20.32-0.070 20.34-20.47 20.35-29.95 0.010-59.91 0-92.74 0 0 10.76 0 20.33 0 29.9 0.010 26.41 0.5 52.84-0.19 79.24-0.3 11.29 2.76 15.6 14.73 15.27 28.46-0.78 56.97 0.1 85.45-0.41 10.24-0.18 13.54 3.56 13.41 13.55-0.41 31.070-0.24 62.15-0.050 93.22 0.59 95.040 60.59 157.62 155.46 159.47 33.39 0.65 66.89-4.18 102.62-6.66 0-35.020 0.24-67.48-0.5-99.92-0.050-2.37-7.040-6.27-11.020-6.57-20.6-1.53-41.44-0.74-61.86-3.36-28.75-3.69-49.16-23.86-50.96-52.33-1.99-31.41-0.45-63.040-0.45-96.57 39.45 0 78.48 0 120.45 0-3.13-21.46-5.83-40.6-8.73-59.71-2.71-17.89-6.040-35.7-8.28-53.64-1.15-9.23-5.35-11.85-14.24-11.66-24.33 0.51-48.72-0.7-73.010 0.5-14.21 0.7-17.3-4.45-17.21-17.65 0.61-89.83 0.81-179.66 1.020-269.5h345.71c10.49 0 19 8.51 19 19v792.31c0.020 10.49-8.48 19-18.98 19z" />
<glyph unicode="&#xe902;" glyph-name="Instagram" d="M515.78 555.67c-58.55 0.16-106.98-48.22-107.38-107.17-0.39-57.53 47.37-107.89 107.26-107.79 59.55 0.1 107.22 49.38 107.55 107.3 0.32 58.25-48.6 107.49-107.43 107.66zM780.11 533.11c-0.45 26.57-0.32 53.26-5.51 79.48-9.44 47.63-36.85 79.12-84.22 92.19-23.29 6.43-47.28 7.060-71.14 7.41-51.64 0.75-103.29 0.87-154.94 0.85-34.090-0.010-68.22-0.030-102.14-4.16-20-2.43-39.1-7.99-56.080-19.28-31.030-20.64-46.84-50.65-50.66-86.8-2.72-25.69-4.1-51.64-4.21-77.48-0.3-71.15-1.77-142.34 2.060-213.46 0.76-14.14 2.72-28.080 6.71-41.69 10.27-35.030 32.070-59.82 65.92-73.71 18.5-7.59 38.12-10.080 57.85-11.25 18.33-1.090 36.73-1.73 55.090-1.66 66.35 0.26 132.69 0.78 199.040 1.48 16.82 0.18 33.59 1.73 49.97 5.95 40.54 10.45 68.49 34.85 82.12 74.79 6.27 18.38 8.31 37.56 8.82 56.83 1.1 41.86 1.72 83.73 2.53 125.6-0.36 0-0.73 0.010-1.090 0.010-0.010 28.3 0.36 56.61-0.12 84.9zM515.55 282.92c-89.7 0.56-165.29 73.27-165.19 165.38 0.1 91.21 74.61 165.49 165.75 165.26 90.6-0.23 165.11-74.18 164.92-165.6-0.2-90.71-73.73-164.76-165.48-165.040zM687.78 582.93c-19.32-0.020-37.39 17.89-37.45 37.14-0.060 19.17 18.030 37.39 37.18 37.45s37.37-18.050 37.44-37.21c0.070-19.35-17.84-37.36-37.17-37.38zM909.29 862h-792.29c-10.49 0-19-8.51-19-19v-792.29c0-10.49 8.51-19 19-19h792.29c10.49 0 19 8.51 19 19v792.29c0 10.49-8.5 19-19 19zM837.99 357.38c-0.31-26.7-0.95-53.46-5.54-79.9-8.91-51.34-33.46-92.7-77.94-121.050-24.050-15.32-50.84-23.57-78.96-26.26-24.45-2.34-49.080-3.26-73.65-3.59-54.15-0.73-108.31-0.97-162.46-0.83-22.86 0.060-45.77 1-68.58 2.6-29.21 2.050-57.48 8.47-83.52 22.5-39.47 21.26-66.080 53.45-80.54 95.8-7.88 23.090-10.82 47.010-11.95 71.23-3.38 72.55-1.88 145.14-1.38 217.7 0.18 25.97 1.52 52.12 4.87 77.85 6.92 53.18 31.74 96.21 77.43 125.85 22.7 14.73 47.96 22.86 74.58 26.5 39.64 5.42 79.58 4.99 119.47 5.14 15.42 0.060 30.85 0.010 46.27 0.010 0-0.25 0-0.5 0-0.75 34.95 0 69.9 0.44 104.84-0.14 27.42-0.45 54.88-1.62 81.69-8.48 52.59-13.46 91.44-43.95 114.83-93.24 10.23-21.56 15.94-44.57 17.41-68.28 1.86-30.050 3.080-60.18 3.36-90.29 0.48-50.77 0.37-101.58-0.23-152.37z" />
<glyph unicode="&#xe903;" glyph-name="QQ" d="M909.29 862h-792.29c-10.49 0-19-8.51-19-19v-792.29c0-10.49 8.51-19 19-19h792.29c10.49 0 19 8.51 19 19v792.29c0 10.49-8.5 19-19 19zM834.39 269.47c-4.070-16.39-16.18-20.92-30.020-11.26-9.82 6.85-17.81 16.38-26.27 25.060-3.43 3.52-5.92 7.94-10.14 13.74-9.42-37.44-29.34-66.45-56.23-91.3 8.87-5.1 17.020-9.060 24.39-14.15 33.31-22.99 32.64-57.86-1.36-79.9-23.76-15.4-50.35-22.030-78.18-23.71-37.5-2.27-74.15 1.76-106.43 22.77-9.8 6.38-17.25 16.74-24.84 26.040-4.53 5.56-14.57 7.67-17.41 1.66-10.21-21.57-28.89-32.61-50.040-39.71-51.020-17.13-101.53-16.24-150.6 7.38-7.22 3.47-14 8.44-19.95 13.85-21.65 19.64-21.62 45.99 0.63 65.060 9.37 8.030 20.57 13.92 31.68 21.29-26.050 24.080-45.93 53.090-55.4 90.020-5.99-7.63-10.66-14.49-16.27-20.46-5.96-6.34-12.26-12.64-19.4-17.52-14.090-9.63-27.5-5.21-30.71 11.32-2.69 13.86-3.77 28.75-1.84 42.67 7.93 57.16 28.31 109.39 65.88 154.060 0.4 0.48 0.82 0.95 1.24 1.41 12.31 13.080 19.070 26.46 22.4 44.36 0.34 1.85 0.35 3.84 1.090 5.52 14.48 32.81 15.16 68.51 21.98 102.94 11.1 56.070 36.58 104.13 82.16 140.28 78.51 62.28 205.43 52.54 273.35-20.86 41.93-45.31 59.72-100.070 65.36-160.29 1.51-16.14 7.74-31.8 11.25-47.81 3-13.65 5.14-27.49 7.84-41.21 0.6-3.050 1.050-7.38 3.12-8.71 18.83-12.060 31.26-29.65 42.15-48.38 23.23-39.95 39.22-82.55 43.22-128.87 1.020-11.65 0.16-23.97-2.65-35.29z" />
<glyph unicode="&#xe904;" glyph-name="Twitter" d="M909.29 862h-792.29c-10.49 0-19-8.51-19-19v-792.29c0-10.49 8.51-19 19-19h792.29c10.49 0 19 8.51 19 19v792.29c0 10.49-8.5 19-19 19zM811.68 624.91c-14.85-19.42-32.11-36.41-51.71-51.010-1.16-0.86-2.020-1.64-1.93-3.38 0.7-13.19 0.26-26.36-0.71-39.53-1.23-16.78-3.7-33.36-7.3-49.78-9.36-42.7-25.65-82.59-48.81-119.67-13.28-21.27-28.61-40.93-46.010-59.020-24.8-25.79-52.84-47.25-84.33-64.24-35.030-18.9-72.34-30.94-111.58-37.12-12.63-1.99-25.35-3.22-38.14-3.95-11.9-0.69-23.8-0.77-35.67-0.33-29.28 1.080-58.060 5.6-86.22 13.8-22.82 6.64-44.82 15.35-65.92 26.3-8.79 4.56-17.37 9.49-25.74 14.78-0.63 0.4-1.5 0.63-1.69 1.92 2.61-0.19 5.13-0.33 7.65-0.55 44.070-3.89 86.21 3.49 126.53 21.61 16.96 7.62 32.73 17.2 47.65 28.22 0.84 0.62 2.41 1.1 2.11 2.25-0.34 1.26-1.9 0.64-2.93 0.71-26.77 1.65-50.65 10.89-71.6 27.57-18.78 14.94-32.030 33.89-40.23 56.4-1.32 3.63-1.030 3.98 2.83 3.39 15.47-2.37 30.87-2.030 46.2 1.16 1.36 0.28 2.7 0.67 4.040 1.010-6.57 2.36-13.22 4.16-19.53 6.91-44.11 19.24-70.060 52.61-77.87 100.090-0.88 5.34-1.18 10.72-1.17 16.13 0 2.43 0.72 2.72 2.8 1.61 15.3-8.16 31.67-12.68 48.91-14.22 1.070-0.1 2.18-0.31 3.44 0.23-0.5 1.21-1.65 1.68-2.54 2.36-29.59 22.46-46.71 52.11-50.76 89.040-2.86 26.1 2.33 50.73 14.78 73.83 1.63 3.030 1.77 3.020 3.93 0.44 22.41-26.77 47.89-50.15 76.98-69.5 32.82-21.83 68.23-38 106.35-48.2 20.62-5.52 41.58-9.040 62.82-11.020 2.78-0.26 5.59-0.32 8.36-0.64 2.46-0.28 3.24 0.5 2.68 2.99-1.91 8.51-2.91 17.18-2.7 25.88 0.77 32.2 11.36 60.64 33.21 84.6 21.070 23.11 47.23 36.78 78.19 40.44 35.33 4.18 67.16-5.020 95.090-27.25 3.91-3.11 7.55-6.54 10.98-10.17 1.15-1.21 2.31-1.23 3.79-0.92 26.33 5.55 51.21 14.92 74.53 28.37 0.69 0.4 1.39 0.79 2.1 1.16 0.16 0.090 0.38 0.070 1.19 0.19-4.37-14.52-11.45-27.26-20.47-38.98-9.040-11.75-20-21.43-32.34-29.73 24.030 2.78 47.020 9.25 69.35 18.67-2.41-4.68-5.48-8.79-8.59-12.85z" />
<glyph unicode="&#xe905;" glyph-name="WeiBo" d="M448.71 333.040c-4.010 0.090-11.55-6.7-11.61-10.46-0.060-3.7 6.15-10.14 10.14-10.51 3.92-0.37 11.66 6.6 11.89 10.7 0.18 3.27-6.83 10.19-10.42 10.27zM611.65 418.42c-19.81 16.010-41.82 27.56-65.7 35.78-17.050 5.87-34.22 11.23-52.48 12.46-15.26 1.020-30.44 3.23-45.22 4.86-13.1-1.4-25.5-2.72-37.91-4.040-9.42-1.010-19.040-1.11-28.2-3.24-14.29-3.32-28.39-7.6-42.33-12.21-28.71-9.48-54.89-23.69-78.1-43.24-18.37-15.47-33.2-33.5-42.68-55.81-7.59-17.85-10.93-36.29-7.37-55.37 3.94-21.090 13.87-39.6 28.060-55.55 13.64-15.34 30.12-27.28 48.22-36.91 18.19-9.68 37.45-16.58 57.39-21.59 19.88-5 40.15-7.76 60.56-8.79 19.040-0.96 38.14-0.22 57.020 2.8 13.29 2.13 26.66 4.19 39.7 7.45 24.37 6.1 47.82 14.79 69.71 27.41 15.050 8.67 29.15 18.63 41.8 30.44 16.090 15.010 28.44 32.81 36.33 53.45 6.44 16.87 9.74 34.31 5.36 52.18-6.89 28.14-21.37 51.51-44.16 69.92zM513.54 246.58c-16.090-18.46-35.89-31.060-58.87-38.34-12-3.8-24.66-6.27-37.2-7.43-20.47-1.9-39.99 3.12-58.84 11.15-15.84 6.75-29 17.040-40.010 29.96-10.97 12.87-17.89 27.72-19.92 44.85-1.94 16.3-0.76 32.11 4.95 47.5 4.28 11.56 10.6 21.89 18.55 31.41 12.57 15.060 27.92 26.31 45.42 34.77 12.48 6.040 25.62 10.080 39.5 11.32 8.5 0.76 17.050 2.12 25.52 1.76 14.91-0.63 29.46-3.51 43.46-9.23 15.36-6.27 28.34-15.74 39.65-27.57 12.56-13.13 20.97-28.49 23.12-46.82 0.63-5.34 0.93-10.73 1.38-16.090 0.29-26.16-9.8-47.85-26.71-67.24zM383.78 318.69c-19.34 0.29-36.51-17.1-36.67-34.72-0.15-17.12 15.97-33.070 32.040-31.57 18.84-0.94 36.51 16.23 36.65 34.83 0.11 16.51-13.86 31.19-32.020 31.46zM909.29 862h-792.29c-10.49 0-19-8.51-19-19v-792.29c0-10.49 8.51-19 19-19h792.29c10.49 0 19 8.51 19 19v792.29c0 10.49-8.5 19-19 19zM775.75 330.5c-5.47-22.96-15.96-43.65-30.010-62.24-10.090-13.35-21.34-26.1-33.57-37.5-18.75-17.47-39.68-32.26-62.21-44.73-23.53-13.020-47.7-24.66-73.36-32.58-23.12-7.14-46.6-13.26-70.17-18.76-12.5-2.91-25.5-4.31-38.34-5-15.58-0.84-31.23-0.2-46.86-0.2 0-0.31 0-0.62 0-0.93-11.2 0-22.44-0.61-33.58 0.16-12.37 0.86-24.63 3.16-36.98 4.53-19.91 2.21-38.94 7.94-57.69 14.54-26.8 9.44-51.9 22.23-74.090 40.17-8.48 6.86-17.030 13.82-24.47 21.74-18.19 19.36-31.15 41.69-38.93 67.42-6.77 22.39-7.53 45.090-6.010 67.77 1.060 15.8 5.14 31.53 9.070 46.99 5.57 21.94 14.64 42.66 25.32 62.59 11.43 21.31 24.37 41.72 39.43 60.66 10.21 12.84 21.050 25.18 31.75 37.62 16.3 18.95 35.070 35.24 54.54 50.82 21.15 16.93 43.63 31.78 67.91 43.76 16.92 8.35 34.94 13.4 53.48 17.13 16.79 3.38 32.33 0.060 46.9-7.3 17.070-8.63 26.42-23.67 30.32-42.25 2.45-11.69-0.44-22.78-3.23-33.95-1.43-5.76-2.96-11.6-3.39-17.48-0.64-8.6 7.19-13.56 15.26-10.040 9.61 4.19 19.13 8.62 28.7 12.9 18.91 8.46 38.42 15.49 58.82 18.91 15.25 2.56 30.9 3.050 45.94-2.49 18.68-6.88 32.3-19.15 36.85-38.86 2.79-12.1 4.24-24.47 1.94-37.39-2.21-12.4-4.54-24.57-8.68-36.48-2.63-7.54 4.18-16.51 13.85-18.8 15.67-3.72 30.62-9.090 44.060-18.22 21.5-14.59 35.1-34.47 39.48-60.12 2.39-14.15 1.29-28.35-2.050-42.39zM782.75 530.31c-6.53-18.48-31.34-23.98-45.49-10.43-8.95 8.57-10.41 18.94-7.38 29.56 6.97 24.37-7.88 49.53-25.83 60.16-10.090 5.98-20.94 7.96-32.51 7.72-12.070-0.25-21.59 4.76-28.25 15.010-5.83 8.99-3.21 24.080 5.21 30.74 7.080 5.61 15.060 7.66 24.010 8.060 19.78 0.9 38.72-1.81 56.17-11.62 19.34-10.88 35.33-25.21 45.46-45.39 4.57-9.1 9.66-18 10.82-28.35 0.9-8.010 1.46-16.070 2.18-24.1-0.24-10.69-0.79-21.17-4.39-31.36zM882.4 524.85c-0.65-10.98-3.3-21.58-10.36-30.69-9.81-12.67-30.3-14.88-42.12-6.18-11.61 8.55-15.13 20.57-11.6 33.84 5.49 20.59 5.69 41.5 4.33 62.31-0.71 10.84-4.64 21.7-8.46 32.060-7.030 19.040-17.54 36.26-31.85 50.73-19.52 19.72-42.95 33.31-69.87 39.95-12.43 3.060-25.42 4.18-38.23 5.22-6.49 0.53-13.15-1.48-19.75-1.63-11.19-0.26-23.9 11.95-26.58 22.71-4.85 19.46 13.020 36.2 30.57 34.99 13.37-0.92 26.86-0.26 40.3-0.16 16.82 0.12 32.61-4.73 48.26-10.030 20.97-7.1 40.13-17.68 57.43-31.47 21.44-17.1 40.12-36.91 53.67-60.78 11.62-20.47 20.79-42.21 23.4-65.99 1.4-12.78 1.93-25.65 2.86-38.48-0.61-0.020-1.22-0.040-1.83-0.060-0.010-12.12 0.54-24.27-0.17-36.34z" />
<glyph unicode="&#xe906;" glyph-name="WeiXin" d="M335.35 619.51c-17.72-0.020-31.96-14.49-31.91-32.42 0.050-17.68 14.32-31.83 32.080-31.82 17.92 0.010 32.12 14.26 32.070 32.17-0.050 17.88-14.34 32.090-32.24 32.070zM584.1 445.69c-14.14-0.16-25.36-11.8-25.18-26.12 0.18-14.13 11.95-25.53 26.090-25.27 14.34 0.26 25.45 11.7 25.27 26-0.19 14.56-11.53 25.56-26.18 25.39zM502.34 554.9c17.88-0.080 32.18 14.19 32.37 31.98 0.19 17.6-14.54 32.57-32.050 32.2-17.85 0.040-32.070-14-32.13-31.71-0.060-18.010 14.040-32.39 31.81-32.47zM723.49 445.7c-14.62 0.060-26.32-11.42-26-26 0.34-15.44 12.64-25.34 25.65-25.39 14.16-0.050 25.73 11.37 25.83 25.56 0.11 14.23-11.28 25.77-25.48 25.83zM909.29 862h-792.29c-10.49 0-19-8.51-19-19v-792.29c0-10.49 8.51-19 19-19h792.29c10.49 0 19 8.51 19 19v792.29c0 10.49-8.5 19-19 19zM430.030 311.68c-1.47-0.16-2.97-0.17-4.44-0.090-15.030 0.87-30.080 1.49-45.080 2.74-13.080 1.090-26 3.48-38.61 7.21-10.050 2.97-19.18 1.51-28.16-3.89-15.64-9.4-31.55-18.36-47.35-27.48-1.38-0.8-2.81-1.54-4.29-2.12-6.65-2.63-12.76 1.64-12.46 8.76 0.080 1.8 0.48 3.61 0.9 5.38 3.45 14.29 6.98 28.57 10.4 42.88 0.55 2.31 0.98 4.74 0.86 7.080-0.25 4.59-2.67 8.080-6.26 10.92-6.26 4.96-12.59 9.85-18.58 15.12-30.32 26.7-51.41 59.29-62.15 98.38-5.56 20.24-7.36 40.82-5.14 61.7 2.41 22.6 9.33 43.86 19.55 64.11 10.9 21.61 25.16 40.72 42.78 57.31 15.38 14.48 32.59 26.42 51.16 36.41 25.99 13.99 53.46 23.89 82.4 29.69 16.72 3.35 33.61 4.96 49.070 4.28 27.1-0.54 52.38-2.99 77.25-8.81 47.69-11.15 89.27-33.56 123.92-68.27 26.16-26.2 43.48-57.51 52.18-93.53 0.16-0.66 0.36-1.33 0.43-2 0.28-2.82-0.62-4.14-3.5-4.33-5.010-0.32-10.030-0.39-15.050-0.5-29.88-0.65-59.030-5.38-87.11-15.79-33.89-12.57-63.74-31.52-88.7-57.77-23.41-24.62-38-53.83-44.55-87.14-4.67-23.76-2.94-47.21 3.060-70.48 0.43-1.65 0.88-3.31 1.15-4.99 0.51-3.24-0.4-4.42-3.68-4.78zM864.27 351.66c-1.27-17.72-6.11-34.52-13.74-50.54-12.72-26.7-31.1-48.72-54.81-66.34-0.27-0.2-0.56-0.4-0.83-0.6-7.24-5.45-9.1-10.61-6.89-19.39 2.73-10.83 5.55-21.64 8.28-32.48 0.5-1.98 0.98-4.020 1-6.040 0.060-5.19-4.52-8.65-9.53-7.29-1.41 0.38-2.77 1.060-4.030 1.81-12.75 7.58-25.5 15.13-38.18 22.83-5.59 3.39-11.42 5.81-18.050 5.35-3.050-0.21-6.1-0.83-9.080-1.57-15.86-3.92-31.88-6.76-48.18-8.040-16.21-1.27-32.38-1.090-48.49 0.97-29.42 3.76-57.040 13.060-82.85 27.7-13.030 7.39-25.46 15.67-36.81 25.48-24.52 21.2-40.93 47.53-49.6 78.73-3.93 14.12-6.21 28.52-6.86 43.15-0.33 7.51-0.43 15.050-0.090 22.55 0.41 8.94 2.77 17.55 5.89 25.92 6.71 17.97 16.93 33.83 29.53 48.17 33.25 37.84 74.67 61.49 124.13 71.020 16.96 3.27 34.060 5.020 50.3 4.89 34.010 0.19 65.65-6.14 95.81-19.5 21.4-9.48 41.3-21.39 58.77-37.13 23.3-20.99 39.33-46.51 48.28-76.56 5.16-17.37 7.32-35.050 6.030-53.090z" />
<glyph unicode="&#xe907;" glyph-name="XiaoHongShu" d="M774.83 503.95c-0.17 4.010-3.32 7.77-6.96 8.48-5.27 1.030-10.56 0.8-15.91 0.010 0-12.63 0-25.020 0-37.63 7.67 0 15.1 0 23.16 0 0 4.17 0.030 7.94-0.010 11.72-0.060 5.79-0.040 11.61-0.28 17.42zM909.29 862h-792.29c-10.49 0-19-8.51-19-19v-792.29c0-10.49 8.51-19 19-19h792.29c10.49 0 19 8.51 19 19v792.29c0 10.49-8.5 19-19 19zM829.98 537.87c0.16 2.58 0.64 5.2 1.42 7.67 3.78 12.020 15.020 18.11 25.48 16.71 12.78-1.71 21.59-11.41 21.85-23.7 0.3-14.070-9.8-24.48-24.43-25.1-2.96-0.13-5.93-0.020-8.9-0.020 0 0.060 0 0.13 0 0.19-2.96-0.14-5.93-0.41-8.89-0.4-4.86 0.010-7.21 2.43-7.13 7.31 0.11 5.78 0.24 11.57 0.6 17.34zM403.89 485.78c0.56 2.4 1.42 4.79 2.49 7.020 11.73 24.5 23.52 48.97 35.3 73.45 1.030 2.14 2.11 4.25 3.14 6.39 1.58 3.28 3.89 5.020 7.81 4.98 13.19-0.14 26.38-0.020 39.57-0.010 1.040 0 2.080-0.11 3.61-0.19-0.81-1.7-1.43-3.070-2.1-4.42-8.45-17-16.91-33.99-25.36-50.98-0.74-1.49-1.36-3.040-2.15-4.5-1.77-3.28-1.68-6.57-0.19-10.24 0.56 0.66 1.040 1.13 1.41 1.66 2.43 3.49 5.79 5.18 10 5.18 13.78 0 27.57-0.040 41.35-0.070 0.34 0 0.69-0.13 1.53-0.3-0.53-1.25-0.96-2.41-1.5-3.51-8.26-16.69-16.53-33.38-24.81-50.060-3.8-7.65-7.64-15.28-11.39-22.95-0.93-1.91-1.74-3.92-2.27-5.97-0.62-2.36 0.33-4.010 2.66-4.67 1.81-0.51 3.73-0.76 5.61-0.83 4.99-0.18 9.98-0.15 14.97-0.29 1.38-0.040 2.76-0.37 4.46-0.62-0.46-1.21-0.7-2.1-1.12-2.91-5.55-10.89-11.2-21.72-16.63-32.67-1.54-3.11-3.83-4.35-7.070-4.35-15.090 0.020-30.18 0-45.27 0.13-2.21 0.020-4.48 0.57-6.62 1.21-8.88 2.66-12.99 9.6-11.040 18.66 0.52 2.42 1.3 4.83 2.32 7.080 7.39 16.31 14.87 32.59 22.32 48.87 0.53 1.15 1.020 2.33 1.77 4.050-1.94 0-3.32-0.020-4.7 0-7.24 0.15-14.48 0.23-21.72 0.53-1.97 0.080-3.98 0.66-5.87 1.31-8.84 3.050-12.65 9.89-10.51 19.020zM213.31 464.17c-1.44-17.020-2.62-34.070-4.38-51.060-1.41-13.62-4.67-26.9-10.58-39.34-4.88-10.27-10.11-20.37-15.14-30.45-2.79-0.33-3.93 0.71-4.84 2.5-8 15.76-16.060 31.49-24.14 47.21-0.92 1.8-1.040 3.5-0.41 5.46 3.94 12.27 5.86 24.91 6.66 37.74 0.65 10.42 1.1 20.86 1.9 31.26 0.64 8.39 1.72 16.75 2.51 25.13 0.36 3.77 0.48 7.57 0.7 11.36 0.030 0.59-0.030 1.19 0 1.78 0.31 6.33 2.51 8.48 8.84 8.47 13.31-0.010 26.61-0.070 39.92-0.13 0.92 0 1.85-0.13 3.12-0.23-0.29-3.82-0.55-7.44-0.86-11.060-1.080-12.87-2.2-25.75-3.3-38.64zM297.34 366.82c-0.1-7.26-0.76-14.47-3.34-21.34-5.59-14.92-16.42-23.090-32.23-24.68-7.79-0.79-15.48-0.16-22.65 3.2-13.38 6.27-19.9 17.38-21.73 31.63-0.2 1.53-0.22 3.080-0.28 4.62-0.010 0.32 0.19 0.65 0.43 1.38 9.95 0 19.98 0 30.36 0 0 72.060 0 143.69 0 215.66 16.76 0 32.87 0 49.36 0 0.060-1.65 0.15-3.15 0.15-4.65 0.010-59.82 0.010-119.64 0-179.46 0.020-8.8 0.050-17.58-0.070-26.36zM387.13 390.28c-0.76-2.11-1.69-4.18-2.69-6.19-6.39-12.85-12.81-25.67-19.23-38.5-0.41-0.83-0.89-1.62-1.46-2.66-0.52 0.37-0.94 0.56-1.19 0.88-10.71 13.49-18.71 28.3-21.44 45.51-1.52 9.6-2.67 19.26-3.84 28.91-1.65 13.65-3.21 27.32-4.74 40.99-1.34 12.020-2.58 24.050-3.87 36.080-0.64 6-1.28 12-1.97 18.44 1.22 0.13 2.030 0.28 2.83 0.28 13.3-0.030 26.6-0.030 39.91-0.14 5.63-0.040 7.43-1.65 7.93-7.23 1.040-11.58 1.94-23.16 2.87-34.75 1.11-13.83 2.18-27.67 3.26-41.5 0.39-4.97 0.59-9.95 1.16-14.9 0.33-2.9 0.84-5.91 1.94-8.58 2.29-5.56 2.55-11.040 0.53-16.64zM458.18 320.8c-20.78 0.6-41.57 0.97-62.35 1.57-2.27 0.070-4.51 1.080-7.090 1.74 0.54 1.31 0.82 2.17 1.23 2.96 7.030 13.6 14.13 27.15 21.050 40.8 1.21 2.38 2.68 3.080 5.24 3.070 23.050-0.090 46.11-0.050 69.16-0.060 1.14 0 2.28-0.1 3.77-0.17-0.57-1.29-0.93-2.27-1.41-3.19-7.25-14.020-14.58-27.99-21.71-42.070-1.74-3.41-4.040-4.76-7.89-4.65zM655.81 321.18c-56.33 0-112.22 0-168.44 0 0.37 1.010 0.6 1.9 1.010 2.69 1.53 2.95 3.27 5.8 4.66 8.81 2.64 5.69 5.1 11.47 7.63 17.21 0.96 2.17 1.78 4.4 2.88 6.5 5.73 10.97 15.16 15.75 27.81 14.12 8.32-1.070 16.57-1.060 24.88-0.81 0.59 0.020 1.17 0.14 1.98 0.24 0.2 0.89 0.53 1.78 0.59 2.68 0.15 2.25 0.25 4.5 0.25 6.76 0.030 37.16 0.050 74.31 0.080 111.47 0 4.39 0.080 8.78 0.070 13.18 0 1.3-0.030 2.63-0.27 3.9-0.45 2.4-1.77 4.17-4.31 4.62-1.74 0.31-3.52 0.49-5.29 0.55-3.56 0.11-7.13 0.020-10.69 0.16-1.65 0.060-3.31 0.36-4.92 0.73-2.76 0.64-4.74 2.35-5.38 5.12-0.58 2.53-1.050 5.14-1.090 7.72-0.16 10.92-0.13 21.84-0.16 32.76 0 0.34 0.14 0.68 0.32 1.48 37.31 0 74.47 0 111.91 0 0.12-0.94 0.33-1.84 0.33-2.74-0.030-12.58-0.050-25.16-0.16-37.75-0.050-5.11-2.15-7.23-7.37-7.45-5.69-0.24-11.4-0.14-17.090-0.48-4.98-0.3-7.19-2.86-7.19-7.8-0.060-43.68-0.11-87.37-0.16-131.050 0-1.17 0-2.35 0-3.87 1.64-0.080 3.030-0.2 4.42-0.2 11.41-0.020 22.82-0.010 34.22-0.010 1.54 0 3.090 0 4.63-0.1 3.61-0.24 4.49-1.13 4.78-4.82 0.080-1.060 0.070-2.14 0.070-3.2 0-11.99 0-23.98 0-35.97 0-1.41 0-2.81 0-4.45zM878.070 356.12c-2.44-15.66-11.46-26.33-26.23-31.85-14.96-5.59-30.090-5.47-44.81 0.8-14.33 6.1-22.29 17.21-23.9 32.74-0.14 1.4-0.020 2.82-0.020 4.66 1.55 0.12 2.91 0.31 4.27 0.31 12.48 0.020 24.96 0.010 37.43 0.010 1.39 0 2.77 0 4.33 0 0.11 1.4 0.25 2.32 0.24 3.24-0.010 14.84-0.22 29.68-0.010 44.51 0.14 9.86-5.9 13.9-14.11 14.2-5.7 0.21-11.41 0.15-17.11 0.15-14.5 0.010-29-0.020-43.5-0.040-0.82 0-1.64-0.080-2.98-0.15-0.010-11.42-0.030-22.76-0.030-34.1-0.010-11.52 0-23.030 0-34.55 0-11.37 0-22.73 0-34.35-16.48 0-32.56 0-49.040 0 0 34.28 0 68.42 0 103.090-16 0.040-31.62 0-47.46 0.030 0 16.54 0 32.75 0 49.29 15.43 0 30.71 0 45.88 0 0.89 2.8 1.18 32.050 0.42 38.72-4.94 0.35-10 0.1-15.030 0.15-4.97 0.040-9.94 0.010-15.27 0.010 0 16.39 0 32.15 0 48.34 10.080 0 20.010 0 30.36 0 0.5 5.76 0.96 11.12 1.45 16.76 2.96 0 5.56 0.010 8.16 0 10.69-0.030 21.39-0.21 32.080-0.040 6.91 0.11 8.080-3.030 8.32-8.4 0.11-2.47 0.020-4.94 0.020-7.89 1.61 0 3 0 4.38 0 7.96 0.030 15.9 0.16 23.8-1.3 22.090-4.080 37.73-19.62 41.94-41.62 1.64-8.6 1.29-17.26 1.37-25.91 0.050-5.69 0.010-11.38 0.010-17.42 2.67-0.46 5.2-0.93 7.74-1.31 7.64-1.15 15.24-2.41 22.34-5.67 16.29-7.47 24.86-20.4 25.39-38.060 0.58-19.45 0.27-38.93 0.25-58.4 0-5.3 0.14-10.71-0.68-15.95z" />
<glyph unicode="&#xe908;" glyph-name="home" d="M375.467 243.2v-68.267h273.067v68.267h-273.067zM487.834 881.766c6.18 6.195 14.726 10.028 24.166 10.028s17.986-3.833 24.166-10.027l443.734-443.734-48.265-48.333-78.302 78.302v-395.469c0-37.703-30.564-68.267-68.267-68.267h-546.133c-37.703 0-68.267 30.564-68.267 68.267v0 395.469l-78.234-78.302-48.333 48.333 443.733 443.733zM512 809.335l-273.067-273.067v-463.735h546.133v463.735l-273.067 273.067z" />
<glyph unicode="&#xe909;" glyph-name="me" d="M872 191.5v-148.5c0-27-18-45-45-45h-630c-27 0-45 18-45 45v148.5c0 85.5 31.5 166.5 85.5 234 18 18 45 22.5 63 4.5s22.5-45 4.5-63c-40.5-49.5-63-112.5-63-175.5v-103.5h540v103.5c0 63-22.5 126-63 175.5-18 18-13.5 49.5 4.5 63 18 18 49.5 13.5 63-4.5 54-67.5 85.5-148.5 85.5-234zM264.5 650.5c0 135 112.5 247.5 247.5 247.5s247.5-112.5 247.5-247.5-112.5-247.5-247.5-247.5-247.5 112.5-247.5 247.5zM354.5 650.5c0-85.5 72-157.5 157.5-157.5s157.5 72 157.5 157.5-72 157.5-157.5 157.5-157.5-72-157.5-157.5z" />
<glyph unicode="&#xe90a;" glyph-name="xuan" d="M82.443 761.579v-278.031h397.187v397.187h-278.031c-65.808 0-119.156-53.348-119.156-119.156v0zM400.192 562.986h-238.312v198.593c0 21.936 17.783 39.719 39.719 39.719v0h198.593zM829.153 880.735h-278.031v-397.187h397.187v278.031c0 65.808-53.348 119.156-119.156 119.156v0zM868.872 562.986h-238.312v238.312h198.593c21.936 0 39.719-17.783 39.719-39.719v0zM82.443 133.627c0-65.808 53.348-119.156 119.156-119.156v0h278.031v397.187h-397.187zM161.88 332.22h238.312v-238.312h-198.593c-21.936 0-39.719 17.783-39.719 39.719v0zM551.123 14.471h278.031c65.808 0 119.156 53.348 119.156 119.156v0 278.031h-397.187zM630.56 332.22h238.312v-198.593c0-21.936-17.783-39.719-39.719-39.719h-198.593z" />
<glyph unicode="&#xe90b;" glyph-name="DouYin1" d="M129.32 447.92c0 108.8 0 217.58 0 326.38 0 30.76 24.24 54.92 55.16 54.92 217.8 0 435.62 0 653.42 0 30.94 0 55.1-24.060 55.1-54.92 0.020-218.080 0.020-436.18 0-654.26 0-30.34-24.28-54.54-54.72-54.54-218.060-0.020-436.12-0.020-654.16 0-30.44 0-54.7 24.2-54.72 54.54-0.020 109.3 0 218.58 0 327.88-0.040 0-0.060 0-0.080 0zM476.42 497.26c-15.020 2.6-29.8 1.98-44.6-0.46-75.16-12.36-126.020-88.7-108.18-162.44 17.2-71.080 86.2-115.74 158.060-102.3 64.24 12.020 110.62 67.7 110.6 132.92-0.020 49.66-0.16 99.3-0.24 148.96 0 2.6 0 5.2 0 9 33.44-24.3 69.1-37.36 109.46-37.18 0 23.86 0 46.68 0 70-30.18 0.8-56.020 11.24-77.12 32.18-21.080 20.92-31.44 46.76-32.64 76.28-23.66 0-46.7 0-70.32 0 0-3.46 0-6.42 0-9.38 0-94.82 0.020-189.62-0.040-284.44 0-4.98-0.34-9.98-0.96-14.9-3.92-31.2-30.38-54.68-62.54-55.66-30.98-0.94-59.42 21.92-64.92 52.2-5.76 31.72 11.6 62.32 41.22 72.94 13.84 4.96 27.78 4.98 42.24 1.060-0.020 23.96-0.020 47.34-0.020 71.22z" />
<glyph unicode="&#xe90c;" glyph-name="FaceBook1" d="M551.38 65.5c0 112.96 0 224.84 0 337.66 8.56 0 16.98 0 25.38 0 14.98 0 29.96-0.16 44.92 0.18 2.22 0.060 6.16 2.26 6.32 3.78 2.86 28.5 5.28 57.040 7.92 86.94-28.12 0-55.68 0-83.46 0 0 22.66-0.76 44.040 0.32 65.32 0.54 10.74 6.54 15.64 18.1 16.38 18.4 1.18 36.88 1.14 55.34 1.48 9.66 0.18 9.68 0.040 9.68 9.86 0 24.96 0 49.9 0 74.86 0 2.72 0 5.42 0 8.14-1.52 0.54-2.44 1.14-3.34 1.12-34.66-0.62-69.52 0.68-103.94-2.52-37.78-3.52-67.32-22.18-80.060-60.1-3.64-10.82-3.86-23.060-4.12-34.7-0.58-25.9-0.18-51.82-0.18-79.22-20.44 0-38.76 0-57.7 0 0-31.76 0-62.040 0-93.28 18.48 0 37.020 0 55.96 0 0-112.32 0-223.68 0-335.28-1.5-0.28-2.42-0.58-3.36-0.58-72.12 0.2-144.24 0.78-216.36 0.54-47.2-0.16-80.28 30.2-92.62 73.58-0.66 2.34-0.7 4.92-0.7 7.38-0.020 199.88-0.22 399.76 0.3 599.62 0.040 18.24 9.48 34.4 21.46 48.28 18.26 21.16 41.18 32.22 69.5 32.3 154.98 0.36 309.94 1.080 464.92 1.34 40.92 0.060 81.86-0.38 122.74-1.84 43.86-1.58 82.64-41.22 83-85 0.98-118.76 1.6-237.54 1.7-356.3 0.060-78.34-0.72-156.68-1.74-235.020-0.54-42.040-40-82.76-82.060-83.48-73.6-1.26-147.22-1.060-220.84-1.44-11.92-0.060-23.86 0-37.080 0z" />
<glyph unicode="&#xe90d;" glyph-name="fanhui" d="M1024.903 529.187h-759.909l285.778 286.427-91.579 91.579-459.193-459.193 459.193-459.193 91.579 91.579-318.252 318.902h792.384v129.899z" />
<glyph unicode="&#xe90e;" glyph-name="fanhui2" d="M1004.837 4.754s-10.094-25.893-23.406 0c0 0-149.431 450.706-513.536 337.189v-139.922s-5.851-82.286-77.605-28.672l-357.815 309.029s-75.922 41.253 4.535 97.865l361.838 310.857s54.418 38.766 67.584-24.869l0.439-150.894c-0.146-0.146 678.473-32.695 537.966-710.656z" />
<glyph unicode="&#xe90f;" glyph-name="home1" d="M375.467 243.2v-68.267h273.067v68.267h-273.067zM487.834 881.766c6.18 6.195 14.726 10.028 24.166 10.028s17.986-3.833 24.166-10.027l443.734-443.734-48.265-48.333-78.302 78.302v-395.469c0-37.703-30.564-68.267-68.267-68.267h-546.133c-37.703 0-68.267 30.564-68.267 68.267v0 395.469l-78.234-78.302-48.333 48.333 443.733 443.733zM512 809.335l-273.067-273.067v-463.735h546.133v463.735l-273.067 273.067z" />
<glyph unicode="&#xe910;" glyph-name="Instagram1" d="M892.92 599.3c-0.060 47.42-1.5 94.84-1.52 142.26-0.020 43.38-43.86 85.42-83.76 85.46-43.16 0.040-86.3 1.74-129.46 1.68-149.7-0.22-299.4-0.86-449.1-1.48-9.44-0.040-19.18-0.060-28.24-2.28-41.94-10.32-69.14-45.1-69.6-88.78-1-96.34-1.68-192.68-2.5-289.020 0.32 0 0.64 0 0.94 0 0-62.9-0.22-125.82 0.080-188.72 0.18-36.44 1.22-72.86 1.8-109.3 0.64-39.84 42.68-82.54 85.28-82.3 22.94 0.12 45.9-1.080 68.84-1.12 113.040-0.26 226.060-0.56 339.1-0.42 59.12 0.060 118.26 1.9 177.38 1.24 46.22-0.5 90.36 43.58 89.38 88.76-0.6 27.42 1.080 54.9 1.12 82.34 0.26 120.54 0.44 241.12 0.26 361.68zM821.12 312.28c-0.060-38.46-13.080-72.6-36.28-102.66-26.78-34.72-61.26-58.62-104.4-68.64-9.26-2.16-18.9-3.7-28.38-3.72-92.32-0.28-184.62-0.080-276.94-0.22-29.52-0.040-56.58 8.88-81.78 23.080-25.92 14.6-46.9 35.26-63.3 60.020-14.6 22.020-24.48 46.14-27.2 72.74-0.8 7.86-1.46 15.76-1.46 23.66-0.1 88.6 0.080 177.22-0.14 265.82-0.080 29.8 8.7 57.14 23 82.58 14.58 25.94 35.2 46.94 59.96 63.36 22.22 14.74 46.5 24.78 73.4 27.4 5.88 0.56 11.78 1.42 17.66 1.42 89.56 0.1 179.14-0.080 268.7 0.12 39.040 0.1 73.72-12.62 104.26-36.020 35-26.8 59-61.56 69.14-104.96 2.16-9.26 3.56-18.92 3.62-28.42 0.36-46.92 0.16-93.84 0.16-140.78 0-44.94 0.040-89.86-0.020-134.78zM753.68 579.7c-2.24 25.94-12.5 48.88-29.48 68.22-25.76 29.36-59.16 42.98-97.94 43.28-38.42 0.3-76.82 0.060-115.24 0.060-35.92 0-71.84 0.24-107.76-0.14-11.28-0.12-22.7-0.98-33.78-2.98-61.18-11.080-100.88-61.56-101.96-120.5-1.42-77.84-0.32-155.72-0.36-233.58-0.020-22.44 4.4-43.82 15.020-63.72 23.14-43.32 60.5-65.78 108.4-66.9 74.8-1.76 149.66-0.62 224.5-0.34 13.26 0.040 26.7 0.84 39.74 3.1 21.84 3.8 41.38 13.6 57.82 28.44 29.44 26.58 42.64 60.44 42.64 99.8-0.020 69.62 0.060 139.26-0.080 208.88-0.020 12.14-0.48 24.3-1.52 36.38zM511.18 283.86c-86.020-0.32-170.34 71.34-161.94 178.6 5.98 76.18 71.76 148.16 162.6 147.86 90.080-0.3 163.020-71.58 162.56-163.52 0.16-91.16-72.34-162.6-163.22-162.94zM673.38 566.82c-22.9-0.48-42.2 17.94-42.38 42.28-0.14 21.9 18.74 44.22 45.58 42.080 22.1-1.76 38.26-17.94 38.26-42.3 0-25.56-16.2-41.52-41.46-42.060zM514.98 541.12c-57.42 1.3-97.5-42.66-97.6-93.5-0.1-52.54 39.82-93.28 92.82-94.58 52.72-1.28 94.68 42.38 95.32 93.92-0.84 52.7-41.92 93.080-90.54 94.16z" />
<glyph unicode="&#xe911;" glyph-name="me1" d="M872 191.5v-148.5c0-27-18-45-45-45h-630c-27 0-45 18-45 45v148.5c0 85.5 31.5 166.5 85.5 234 18 18 45 22.5 63 4.5s22.5-45 4.5-63c-40.5-49.5-63-112.5-63-175.5v-103.5h540v103.5c0 63-22.5 126-63 175.5-18 18-13.5 49.5 4.5 63 18 18 49.5 13.5 63-4.5 54-67.5 85.5-148.5 85.5-234zM264.5 650.5c0 135 112.5 247.5 247.5 247.5s247.5-112.5 247.5-247.5-112.5-247.5-247.5-247.5-247.5 112.5-247.5 247.5zM354.5 650.5c0-85.5 72-157.5 157.5-157.5s157.5 72 157.5 157.5-72 157.5-157.5 157.5-157.5-72-157.5-157.5z" />
<glyph unicode="&#xe912;" glyph-name="QQ1" d="M511 829.82c95.8-0.78 191.62-1.44 287.42-2.42 44.62-0.46 80.46-27.5 90.46-68.46 2.34-9.54 2.48-19.78 2.52-29.7 0.56-164.2 1-328.42 1.28-492.62 0.040-26.44-1.92-52.92-1.040-79.32 1.56-46.84-43.52-90.82-90.74-90.56-113.020 0.64-226.060-1.020-339.080-1.12-80.1-0.060-160.18 1.76-240.28 1.18-44.22-0.32-82.020 36.32-88.040 69.88-2.62 14.6-2.56 29.78-2.6 44.72-0.54 151.72-0.96 303.46-1.16 455.18-0.040 33.94 1.66 67.88 1.26 101.8-0.54 43.92 36.8 81.080 70.3 86.86 13.9 2.4 28.3 2.2 42.5 2.42 44.66 0.68 89.32 1.18 133.98 1.42 44.42 0.24 88.84 0.060 133.26 0.060-0.040 0.18-0.040 0.44-0.040 0.68zM348.060 253.36c-7.4-4.92-14.82-9.18-21.5-14.38-21.92-17.060-22.86-39.58-4.42-56.52 19.8-18.2 45.32-24.46 71.38-26.9 20.22-1.9 40.48-0.020 60.060 5.88 20.4 6.16 40.18 13.52 50.32 34.78 2.44 5.12 6.54 4.8 10.32 1.62 2.8-2.36 4.92-5.52 7.54-8.14 5.040-5.060 9.74-10.64 15.44-14.86 17.28-12.76 37.66-17.74 58.44-19.2 24.36-1.7 49.020-0.96 71.98 8.9 11.080 4.76 22.84 10.12 31.34 18.26 18.64 17.86 14.32 40.94-4.58 56.12-6.54 5.26-14.18 9.12-21.74 13.88 19.46 20.48 36.12 42.5 43.020 70.96 4.9-5.18 8.88-9.5 12.96-13.72 4.26-4.38 8.3-9.060 13.020-12.9 11.74-9.58 24.7-10.64 29.1 7.62 1.26 5.2 2.38 10.58 2.42 15.9 0.2 28.84-6.5 56.28-17.78 82.68-10.84 25.4-22.42 50.62-44.12 68.74-7.72 6.44-11.12 13.6-12.58 22.64-0.36 2.2 0.1 4.56-0.46 6.68-7.34 28.86-12.94 58.040-17.98 87.42-7.46 43.64-26.24 81.62-60.1 111.28-14.36 12.58-30.5 22.040-48.28 28.68-22.4 8.38-45.6 11.14-69.5 10.7-23.74-0.44-46.1-5.9-67.32-15.92-24.98-11.78-44.92-29.84-61.18-52.040-18.86-25.76-29.38-54.9-34.78-86.1-3.080-17.82-5.54-35.76-9.16-53.46-2.040-9.96-5.36-19.74-8.96-29.28-3.92-10.4-6.84-22.1-13.7-30.28-19.28-23-35.24-47.74-45.1-75.98-10.14-29.040-18.2-58.66-12.92-90 1.94-11.44 9.7-21.44 23.84-13.12 7.24 4.26 13.32 10.62 19.5 16.5 4.14 3.92 7.52 8.64 12.040 13.92 7.66-28.5 22.82-50.98 43.44-70.36z" />
<glyph unicode="&#xe913;" glyph-name="Twitter1" d="M510.94 829.84c95.82-0.78 191.62-1.44 287.44-2.42 44.66-0.46 80.48-27.46 90.5-68.42 2.34-9.54 2.5-19.78 2.52-29.7 0.56-164.22 1-328.44 1.28-492.66 0.040-26.44-1.94-52.94-1.040-79.34 1.58-46.9-43.54-90.88-90.7-90.62-110.54 0.64-221.080-1.040-331.62-1.12-82.58-0.060-165.18 1.76-247.76 1.16-44.28-0.32-82.060 36.34-88.080 69.84-2.62 14.6-2.56 29.78-2.62 44.72-0.54 151.74-0.96 303.48-1.16 455.22-0.040 33.94 1.66 67.88 1.24 101.8-0.54 44 36.88 81.16 70.26 86.9 13.9 2.4 28.3 2.38 42.5 2.42 89.080 0.2 178.16 0.1 267.24 0.1 0 0.72 0 1.42 0 2.12zM292.38 492.82c-1.22-24.1 8.020-44.62 22.34-63.22 14.3-18.58 33.96-29.64 55.88-37.58-2.16-1.44-3.8-2.12-5.44-2.2-8.72-0.42-17.44-0.7-26.14-1.040-9.36-0.36-10.54-2.080-6.46-10.1 16.18-31.92 41.9-51.32 76.94-58.38 4.18-0.84 8.38-1.52 12.58-2.28-42.6-34.060-91.18-47.1-144.58-45.26 1.42-2.060 2.62-2.88 3.88-3.58 78.34-44.020 161.2-52.68 245.72-24.42 101.38 33.88 161.82 108.020 189.18 209.52 6.6 24.5 6.12 50.86 9.4 76.3 0.5 3.94 2.92 8.24 5.7 11.2 11.48 12.12 23.54 23.7 35.18 35.68 2.58 2.66 4.28 6.16 6.38 9.28-9.44-1.22-17.7-3.88-26.080-6-8.080-2.040-16.32-3.48-24.5-5.2-0.18 0.68-0.36 1.34-0.54 2.020 17.66 13.64 31.66 29.96 40 52.020-15.56-6.12-29.54-11.36-43.3-17.12-12.4-5.18-23.82-6.36-33.58 5.1-1.26 1.48-3.18 2.4-4.84 3.5-33.96 22.4-69.88 25.64-105.62 6.52-42-22.44-59.22-59.42-55.46-106.52 0.2-2.6 0.34-5.2 0.56-8.82-86.36 6.72-156.68 42.7-213.34 107.54-1.52-2.8-2.78-4.88-3.82-7.060-17.82-37.78-10.58-82.92 18.12-113.4 5.040-5.36 9.88-10.9 14.82-16.36-0.42-0.72-0.82-1.46-1.24-2.18-13.72 3.98-27.46 7.94-41.74 12.040z" />
<glyph unicode="&#xe914;" glyph-name="WeiBo1" d="M892.68 236.36c-0.28 164.48-0.72 328.96-1.28 493.44-0.040 9.68-0.18 19.66-2.44 28.98-10 41.18-46 68.24-91.080 68.68-95.82 0.96-191.64 1.62-287.44 2.42 0-0.7 0-1.42 0-2.12-89.080 0-178.16 0.1-267.24-0.1-13.94-0.020-28.12 0.080-41.76-2.32-34.020-5.98-70.98-43.22-70.5-86.74 0.38-34.42-1.2-68.86-1.28-103.3-0.22-113.56-0.32-227.14-0.14-340.7 0.080-45.92 2-91.84 1.3-137.74-0.72-47.54 44.44-92.1 91.2-90.020 20.9 0.92 41.9-0.82 62.86-0.88 87.6-0.26 175.18-0.62 262.78-0.42 84.58 0.18 169.18 1.88 253.76 1.18 46.7-0.38 91.68 43.62 90.2 90.32-0.82 26.38 1.1 52.86 1.060 79.32zM719.9 345.88c-10.52-33.96-32.82-59.62-59.56-81.6-37.46-30.8-80.94-49.42-127.72-61.080-23.76-5.92-47.48-11.64-74.6-10.14-27.34-1.86-56.96-1.6-86.28 4.14-43 8.42-81.96 25.42-113.18 56.9-39.28 39.58-45.94 87.62-34.28 140.040 7.2 32.38 21.24 61.7 39.84 88.8 35.34 51.5 78.38 94.92 134.38 124.12 16.72 8.72 34.54 14.5 53.36 16 39.38 3.12 64.58-26.66 55.46-65-1.1-4.6-2.74-9.18-3.080-13.84-0.22-3.1 0.5-7.28 2.48-9.24 1.46-1.44 5.96-0.78 8.64 0.2 19.58 7.24 38.72 15.92 58.68 21.82 11.14 3.3 23.74 3.64 35.44 2.68 26.42-2.2 43.16-19.58 43.52-46.2 0.2-14.7-3.12-29.56-5.76-44.18-1.62-8.98-0.060-13.48 8.68-16.58 2.34-0.84 4.78-1.4 7.16-2.080 50.38-14.36 72.32-54.74 56.82-104.76zM728.44 515.88c-3.5-13.36-14.4-19.8-28.7-17.44-11.34 1.88-18.52 11.54-18.18 24.52 0.060 1.98 0.16 4 0.5 5.96 5.080 28.34-13.28 51.4-42.16 52.96-3.72 0.2-7.56-0.040-11.16 0.74-11.22 2.46-17.98 11.72-17.58 23.46 0.38 11.48 7.2 18.92 19.54 20.8 4.66 0.72 9.44 0.64 14.16 0.94 36.78 0.86 70.38-23.4 82.44-60.98 5.3-16.42 5.62-33.92 1.14-50.96zM805.5 499.42c-3.080-23.020-28.94-33.14-45.080-19.24-9.44 8.14-9.64 18.48-7.080 29.48 8.88 38.28 2.68 73.64-22.54 104.14-26.48 32.020-61.42 45.6-102.74 42.44-13.88-1.060-26.34 8.36-27.26 21.56-1.080 15.68 8.72 26.88 23.9 27.14 6.72 0.12 13.46 0.020 22.6 0.020 69.020 5.040 139.8-53.3 156.26-120.2 6.9-28.18 5.74-56.98 1.94-85.34zM586.86 424.3c-38.020 30.020-82.84 40.040-129.62 40.38-27.72 0.2-55.48-4.56-82.12-14.24-31.28-11.36-59.38-27.2-80.86-53.1-32.38-39.040-30.040-83.26 6.88-118.040 9.68-9.12 21.040-16.94 32.76-23.3 32.24-17.48 67.4-23.8 109.48-24.56 6.26 0.68 18.18 1.66 30.020 3.32 37.86 5.28 73.1 17.36 103.98 40.58 19.38 14.58 34.4 32.5 42.58 55.58 3.86 10.86 6.52 21.92 4.040 33.7-5.14 24.46-17.62 44.26-37.14 59.68zM523.7 300.98c-20.78-33.26-51.74-48.36-89.68-51.3-16.24-1.26-31.64 2.28-46.56 8.64-51.86 22.1-66.3 84.040-29.2 126.56 22.74 26.060 51.94 37.74 86.3 37.26 24.3-0.080 45.52-7.8 64.44-23.54 31.2-26 30.020-73.12 14.7-97.62zM408.080 353.26c-17.36 0.32-37.3-19.94-37.22-35.8 0.080-15.12 17.56-34.080 32.78-33.12 21.16 1.34 37.22 15.4 37.26 35.5 3.080 16-17.24 33.14-32.82 33.42zM459.4 363.62c-8.68-0.040-15.84-7.26-15.76-15.94 0.080-8.26 6.64-14.6 15.18-14.64 8.9-0.040 16.18 6.92 16.18 15.46 0 8.38-7.020 15.16-15.6 15.12z" />
<glyph unicode="&#xe915;" glyph-name="WeiXin1" d="M892.68 236.4c-0.28 164.48-0.72 328.94-1.28 493.42-0.040 9.68-0.18 19.66-2.46 28.98-10.020 41.2-46 68.2-91.1 68.64-95.56 0.96-191.12 1.62-286.7 2.42 0-0.7 0-1.42 0-2.12-89.32 0-178.66 0.1-267.98-0.1-13.94-0.020-28.12 0.060-41.76-2.34-33.94-5.96-70.94-43.18-70.46-86.76 0.38-34.42-1.2-68.86-1.28-103.3-0.22-113.56-0.32-227.12-0.14-340.7 0.080-45.92 1.98-91.84 1.3-137.74-0.7-47.6 44.46-91.76 90.48-89.96 21.16 0.82 42.4-0.84 63.6-0.9 89.080-0.26 178.18-0.62 267.26-0.42 83.1 0.18 166.18 1.88 249.26 1.18 46.66-0.38 91.66 43.6 90.16 90.36-0.8 26.42 1.14 52.9 1.1 79.34zM374.54 343.26c-12.56 2.54-22.22 0.86-32.42-5.66-10.28-6.58-20.9-12.7-31.8-18.18-3.42-1.72-9.32-2.34-12.060-0.48-2.36 1.6-3.040 7.64-2.4 11.36 1.88 10.8 3.96 21.7 7.58 32 3.060 8.74-0.42 13.94-6.54 18.38-16.54 12.020-30.78 26.28-41.74 43.52-12.86 20.22-21.48 41.9-24.18 66.1-4.92 44.1 9.8 81.5 37.36 114.64 27.14 32.66 63.28 50.58 103.18 62.84 25.92 7.96 52.24 8.46 78.52 6.88 44.8-2.72 86.46-16.12 122.36-43.94 26.78-20.74 47.14-46.66 58.040-79.18 2.060-6.16 2.88-12.74 4.34-19.5-10.68-0.84-20.24-1.64-29.78-2.32-41.4-3-78.48-16.74-110.9-43.12-25.84-21.020-43.14-47.1-51.12-79.56-5.18-21.1-3.98-41.82 1.28-62.58 0.58-2.3 0.8-4.7 1.64-9.86-25.1 2.84-48.56 4.060-71.36 8.66zM767.22 304.76c-7.94-10.56-18.1-19.6-28.060-28.38-8.12-7.14-9.94-10.26-7.14-20.68 2.22-8.24 4.64-16.44 6.24-24.8 0.5-2.64-0.54-6.92-2.44-8.32-2.020-1.5-6.54-1.64-8.88-0.36-10.3 5.58-20.34 11.64-30.18 17.98-7.020 4.52-13.9 5.94-22.22 3.72-24.34-6.48-49.4-8.22-74.26-5.94-36.58 3.36-69.080 17.6-98.060 40.62-27.74 22.040-42 51.3-47.62 85.1-3.94 23.78-3.5 47.56 8.98 69.58 15.34 27.060 37.14 47.66 63.64 63.3 21.080 12.44 44.42 18.82 68.46 22.48 9.26 1.4 18.72 1.36 24.76 1.76 46.82-0.46 86.5-12.86 120.78-39.66 27.86-21.78 44.62-50.62 50.1-86.040 5.26-33.88-4.080-63.72-24.1-90.36zM365.020 585.040c-12.88 0.24-24.1-12.18-24.66-25.34-0.56-13.28 12.080-25.36 24.18-25.44 13.98-0.080 25.38 11.62 25.34 25.74 1.72 11.4-11.76 24.8-24.86 25.040zM500.1 534.26c12.58 0.28 25.060 10.62 24.56 24.98 0.52 12.78-9.62 24.98-24.52 25.14-14.66 0.16-25.28-11.92-24.96-25.42 0.32-13.32 11.62-25 24.92-24.7zM565.82 444.34c-10.14 0-20.52-10.52-20.14-20.44 0.34-9.060 11.42-19.64 20.42-19.48 10.48 0.2 19.88 9.42 19.96 19.56 0.060 11.32-8.94 20.38-20.24 20.36zM678.52 444.34c-11.060 0.18-20.56-8.76-20.6-19.4-0.040-10.66 9.54-20.5 20.1-20.64 9.42-0.12 20.32 10.92 20.3 20.56 0 9.24-10.28 19.34-19.8 19.48z" />
<glyph unicode="&#xe916;" glyph-name="XiaoHongShu1" d="M510.64 829.82c95.82-0.78 191.62-1.86 287.44-2.2 28.88-0.1 52.18-10.4 71.22-31.86 14.4-16.22 21.84-34.82 22.080-56.46 0.48-46.42 1.48-92.82 1.54-139.24 0.16-120.8-0.020-241.58-0.24-362.38-0.040-26.94-1.88-53.92-1.060-80.82 1.4-46.48-43.46-90.48-90.38-90.14-94.060 0.68-188.12-0.98-282.2-1.16-82.1-0.16-164.18 0.36-246.28 0.68-16.96 0.060-33.96 1.46-50.88 0.66-46.54-2.2-91.64 42.42-91.040 90.16 0.68 54.64-1.3 109.28-1.38 163.94-0.14 111.8 0.080 223.62 0.46 335.42 0.1 30.94 0.28 61.92 2.22 92.78 2.44 38.68 40.32 75.54 79.12 77.28 36.62 1.64 73.32 2 109.98 2.2 63.12 0.34 126.26 0.1 189.4 0.1 0 0.34 0 0.7 0 1.040zM747.48 369.48c4.7-10.74 8.76-20.66 13.46-30.28 0.98-2 4.32-3.9 6.66-3.98 10.72-0.42 21.5-0.86 32.16-0.040 17.5 1.38 33.36 14.88 33.34 34.34s0 38.92 0 58.4c0 14.6-6.060 25.92-19.46 31.88-7.66 3.4-16.12 5.34-24.44 6.78-4.76 0.82-5.64 2.78-5.56 6.82 0.14 8.74 0.060 17.46 0.040 26.2-0.040 15.5-7.12 27.4-19.52 36-12.72 8.82-27.46 9.94-42.36 8.98-6.42-0.42-9.5 1.5-8.5 8.28 0.78 5.24-1.68 7.020-6.86 6.88-9.98-0.3-19.96-0.38-29.94 0.020-6.040 0.24-9.1-1.44-8.12-7.92 0.84-5.6-1.7-7.62-7.24-7.24-5.22 0.36-10.54 0.56-15.68-0.16-2.020-0.28-5.18-3.16-5.26-4.96-0.5-10.96-0.5-21.96 0-32.92 0.080-1.84 3.2-4.84 5.16-5.060 5.92-0.68 11.96-0.46 17.94-0.18 4.74 0.22 6.88-1.38 6.68-6.38-0.28-7.22-0.28-14.48 0-21.7 0.18-4.92-1.76-6.6-6.58-6.48-10.22 0.24-20.46-0.060-30.68 0.12-4.38 0.080-6.38-1.36-6.28-6.020 0.2-10.48 0.2-20.96 0-31.44-0.080-4.58 1.74-6.2 6.2-6.1 8.98 0.2 17.98-0.34 26.94 0.18 6.78 0.4 9.14-1.56 9.020-8.72-0.44-24.2-0.020-48.4-0.26-72.62-0.060-5.62 1.86-7.46 7.36-7.26 9.46 0.34 18.98 0.5 28.44-0.040 7.040-0.4 9.54 1.62 9.4 9.080-0.46 23.94-0.16 47.9-0.18 71.86 0 3.86-0.46 7.62 5.4 7.58 18.96-0.14 37.92 0.16 56.88-0.14 8.76-0.14 14.020-6.1 14.080-14.74 0.060-8.48 0.040-16.96 0-25.46-0.060-8.96-2.78-11.82-11.94-12.080-7.72-0.2-15.46 0.060-23.2-0.1-2.28 0-4.5-0.84-7.1-1.38zM485.82 336.28c1.9-0.62 2.78-1.18 3.68-1.18 45.38-0.040 90.76-0.020 136.14-0.1 4.46 0 5.42 2.26 5.38 6.12-0.12 9.72-0.28 19.46 0.060 29.18 0.18 5.42-2.060 6.9-7.1 6.76-8.96-0.28-17.96 0.26-26.92-0.2-6.2-0.3-8.2 1.7-8.14 8.020 0.28 32.16 0.14 64.34 0.14 96.52 0 19.64 0 19.64 19.24 19.88 0.5 0 1 0.040 1.5 0 4.38-0.42 6.38 1.28 6.28 5.94-0.2 10.48-0.2 20.94 0 31.42 0.080 4.54-1.68 6.14-6.16 6.12-28.92-0.12-57.84-0.12-86.78 0-4.66 0.020-6.16-1.92-5.98-6.3 0.22-5.48 0.040-10.98 0.040-16.46 0-20.32 0-20.32 19.86-20.74 0.24 0 0.5-0.020 0.74 0 4.96 0.56 6.44-1.82 6.42-6.58-0.12-36.9-0.18-73.82 0.040-110.72 0.040-5.8-2.2-7.28-7.52-7.080-8.96 0.32-17.96 0.32-26.92-0.080-2.16-0.1-5.26-1.76-6.18-3.58-6.12-11.96-11.74-24.16-17.82-36.94zM316.54 463.9c0 28.92-0.14 57.84 0.12 86.74 0.060 6.020-1.9 7.94-7.76 7.62-7.96-0.42-15.94-0.080-23.92-0.12-14.84-0.060-13.34 1.64-13.34-13.020-0.020-54.84-0.080-109.68 0.080-164.52 0.020-6.94-2.16-10.26-9.42-9.72-4.7 0.36-9.46 0.060-14.2 0.060s-5.52-2-3.46-6.080c2.54-5 5.2-10.020 6.96-15.32 3.66-10.9 9.76-17.2 22.24-14.64 3.34 0.68 6.96 0.080 10.44 0.1 10.66 0.080 18.84 4.8 24.76 13.52 6.48 9.56 7.32 20.6 7.42 31.58 0.24 27.96 0.080 55.88 0.080 83.8zM473.5 427.88c0.58 2.82 0.58 3.56 0.88 4.2 9.68 21.34 19.3 42.7 29.16 63.96 2.26 4.86 1.48 6.86-4.080 6.76-8.98-0.14-17.94-0.020-26.92-0.040-5.020-0.020-7.78 1.040-4.98 7.020 6.6 14.14 12.66 28.54 19.22 42.7 2.24 4.82 2.28 7.32-3.98 7.24-10.96-0.16-21.94 0.2-32.9-0.24-2.28-0.1-5.44-2.18-6.52-4.22-4.9-9.28-9.32-18.82-13.66-28.4-6.46-14.22-13.1-28.36-18.92-42.84-5.58-13.88 2.74-21.86 15.5-21.7 5.060 0.060 10.12 0 16.38 0-1.96-4.84-3.16-7.96-4.48-11-5.2-12.1-10.88-24-15.56-36.28-5.3-13.88 1.18-22.88 16.040-23.060 13.46-0.16 26.94-0.34 40.38 0.22 2.92 0.12 6.8 2.7 8.34 5.28 3.98 6.68 6.84 14.040 10.28 21.060 4.42 9.080 4.3 9.34-5.64 9.36-6.020-0.020-12.020-0.020-18.54-0.020zM211.68 354.5c1.1-0.28 2.22-0.56 3.32-0.86 4.9 9.62 10.64 18.92 14.54 28.92 6.14 15.8 8.78 32.36 9.5 49.48 0.9 21.34 3.68 42.6 5.64 63.88 0.42 4.48-0.84 7.040-6.1 6.9-10.46-0.28-20.94-0.12-31.4-0.060-4.86 0.040-7.18-2.040-7.48-7.080-1.38-22.9-2.9-45.78-4.48-68.66-0.34-4.9 0.12-10.38-1.98-14.5-4.5-8.86-1.22-15.88 2.62-23.56 5.64-11.3 10.58-22.96 15.82-34.46zM375.1 353.14c5.82 12.64 11.060 24.1 16.38 35.54 3.32 7.16 5.7 13.3 3.6 22.48-3.8 16.6-3.66 34.12-5.16 51.26-1 11.5-2.3 22.98-2.84 34.5-0.26 5.4-2.92 5.96-7.18 5.88-9.46-0.16-18.94-0.38-28.38 0.060-6.18 0.28-8.66-1.68-8.060-8.020 1.66-17.12 2.8-34.3 4.58-51.42 1.7-16.3 2.92-32.76 6.28-48.74 3.020-14.5 8.9-28.34 20.78-41.54zM482.98 376.28c-1.32 0.3-2.040 0.58-2.76 0.62-20.42 1.12-40.84 2.3-61.28 3.14-1.66 0.060-4.18-1.88-5.020-3.52-6.26-12.38-12.2-24.92-18.9-38.74 4.4-1.040 8.040-2.58 11.7-2.62 17.66-0.26 35.34-0.3 53 0.080 2.46 0.060 5.96 2.26 7.12 4.44 5.32 10.14 10.040 20.62 14.84 31.020 0.78 1.68 0.88 3.66 1.3 5.58zM789.7 518.26c0-4.84-0.46-8.42 0.18-11.8 0.36-1.9 2.4-4.82 3.84-4.92 6.7-0.48 13.6-1 20.14 0.1 13.080 2.2 20.74 10.94 19.42 23.28-0.86 8.1-3.58 14.68-11.1 17.64-8.42 3.32-17.080 4.16-24.82-2.78-6.98-6.3-8.64-14.060-7.66-21.52zM713.32 484.64c0 16.66 0 16.66 16.5 16.62 9.96-0.020 10.44-0.52 10.46-10.76 0-5.98-0.12-11.98 0.040-17.96 0.12-4.14-1.56-6.060-5.74-5.74-1 0.080-2 0.020-3 0-18.26-0.060-18.26-0.060-18.26 17.84z" />
<glyph unicode="&#xe917;" glyph-name="xuan1" d="M82.443 761.579v-278.031h397.187v397.187h-278.031c-65.808 0-119.156-53.348-119.156-119.156v0zM400.192 562.986h-238.312v198.593c0 21.936 17.783 39.719 39.719 39.719v0h198.593zM829.153 880.735h-278.031v-397.187h397.187v278.031c0 65.808-53.348 119.156-119.156 119.156v0zM868.872 562.986h-238.312v238.312h198.593c21.936 0 39.719-17.783 39.719-39.719v0zM82.443 133.627c0-65.808 53.348-119.156 119.156-119.156v0h278.031v397.187h-397.187zM161.88 332.22h238.312v-238.312h-198.593c-21.936 0-39.719 17.783-39.719 39.719v0zM551.123 14.471h278.031c65.808 0 119.156 53.348 119.156 119.156v0 278.031h-397.187zM630.56 332.22h238.312v-198.593c0-21.936-17.783-39.719-39.719-39.719h-198.593z" />
</font>
</defs>
</svg>
